<?xml version="1.0" encoding="UTF-8"?>
<!-- Generator: Adobe Illustrator 21.0.2, SVG Export Plug-In . SVG Version: 6.00 Build 0)  -->
<svg version="1.1" id="Calque_1" xmlns="http://www.w3.org/2000/svg" xmlns:xlink="http://www.w3.org/1999/xlink" x="0px" y="0px" viewBox="0 0 90 4" style="enable-background:new 0 0 90 4;" xml:space="preserve">
<style type="text/css">
	.st0{fill:url(#SVGID_1_);}
	.st1{fill:url(#SVGID_2_);}
	.st2{fill:url(#SVGID_3_);}
</style>
<g>
	<g>
		<linearGradient id="SVGID_1_" gradientUnits="userSpaceOnUse" x1="-7.275958e-12" y1="2" x2="55.837" y2="2">
			<stop offset="0" style="stop-color:#4FACFE"/>
			<stop offset="1" style="stop-color:#00F2FE"/>
		</linearGradient>
		<path class="st0" d="M53.8,4H2C0.9,4,0,3.1,0,2v0c0-1.1,0.9-2,2-2l51.8,0c1.1,0,2,0.9,2,2v0C55.8,3.1,54.9,4,53.8,4z"/>
	</g>
	<linearGradient id="SVGID_2_" gradientUnits="userSpaceOnUse" x1="59.0793" y1="2" x2="65.5798" y2="2">
		<stop offset="0" style="stop-color:#4FACFE"/>
		<stop offset="1" style="stop-color:#00F2FE"/>
	</linearGradient>
	<path class="st1" d="M63.6,4h-2.5c-1.1,0-2-0.9-2-2v0c0-1.1,0.9-2,2-2l2.5,0c1.1,0,2,0.9,2,2v0C65.6,3.1,64.7,4,63.6,4z"/>
	<linearGradient id="SVGID_3_" gradientUnits="userSpaceOnUse" x1="76.0783" y1="2" x2="90" y2="2">
		<stop offset="0" style="stop-color:#4FACFE"/>
		<stop offset="1" style="stop-color:#00F2FE"/>
	</linearGradient>
	<path class="st2" d="M88,4h-9.9c-1.1,0-2-0.9-2-2v0c0-1.1,0.9-2,2-2L88,0c1.1,0,2,0.9,2,2v0C90,3.1,89.1,4,88,4z"/>
</g>
</svg>